<?xml version="1.0" standalone="no"?>
<!DOCTYPE svg PUBLIC "-//W3C//DTD SVG 1.0//EN" "http://www.w3.org/TR/2001/REC-SVG-20010904/DTD/svg10.dtd">
<svg width="636" height="600" viewBox="0 0 636 600" xmlns="http://www.w3.org/2000/svg">
<title>Double interlaced triquetra</title>
<g transform="translate(0,600)scale(1.175,-1.175)" style="fill:none">
<path style="stroke:#ffffff;stroke-width:32" d="M515.728,51.459
C515.909,55.3032,516,59.1516,516,63
C516,198.31,406.31,308,271,308
C135.69,308,26,198.31,26,63
C26,59.1516,26.0908,55.3032,26.2717,51.459
M18.6411,64.6758
C58.1313,39.3235,104.072,25.8459,151,25.8459
C286.31,25.8459,396,135.536,396,270.846
C396,362.514,344.827,446.514,263.369,488.557
M278.632,488.558
C197.174,446.514,146,362.514,146,270.846
C146,135.536,255.69,25.8459,391,25.8459
C437.928,25.8459,483.868,39.3235,523.359,64.6758
M479.86,70.658
C475.74,183.03,383.447,272,271,272
C158.553,272,66.2607,183.03,62.1401,70.6587
M53.2029,86.1389
C83.3325,70.186,116.908,61.8459,151,61.8459
C266.427,61.8459,360,155.418,360,270.846
C360,342.784,323.003,409.667,262.063,447.894
M279.938,447.895
C218.997,409.667,182,342.784,182,270.846
C182,155.418,275.573,61.8459,391,61.8459
C425.092,61.8459,458.667,70.186,488.797,86.1389"/>
<path style="stroke:#000000;stroke-width:20" d="M515.861,54.7573
C515.954,57.5037,516,60.252,516,63
C516,198.31,406.31,308,271,308
C135.69,308,26,198.31,26,63
C26,60.252,26.0464,57.5037,26.1387,54.7573
M21.4309,62.9111
C60.3064,38.687,105.195,25.8459,151,25.8459
C286.31,25.8459,396,135.536,396,270.846
C396,361.328,346.13,444.444,266.292,487.023
M275.708,487.024
C195.87,444.445,146,361.328,146,270.846
C146,135.536,255.69,25.8459,391,25.8459
C436.805,25.8459,481.693,38.687,520.569,62.9111
M479.67,74.7393
C473.443,185.431,381.866,272,271,272
C160.148,272,68.5781,185.453,62.332,74.7766
M56.865,84.2458
C86.0588,69.5183,118.302,61.8459,151,61.8459
C266.427,61.8459,360,155.418,360,270.846
C360,341.32,324.483,407.049,265.533,445.669
M276.468,445.67
C217.517,407.05,182,341.321,182,270.846
C182,155.418,275.573,61.8459,391,61.8459
C423.698,61.8459,455.941,69.5183,485.135,84.2458"/>
<path style="stroke:#ffffff;stroke-width:6" d="M407.677,237.938
C399.531,244.302,390.951,250.089,382,255.258
M402.149,208.656
C395.368,214.763,388.167,220.388,380.602,225.491
M234.163,65.0112
C243.746,68.8831,253.048,73.4202,262,78.5884
M211.567,84.439
C220.246,87.2588,228.719,90.6819,236.921,94.6824
M171.16,301.742
C169.722,291.507,169,281.182,169,270.846
M199.283,311.597
C197.386,302.67,196.114,293.622,195.477,284.518
M195.071,271.612
C186.573,268.519,178.272,264.909,170.214,260.803
M197.577,244.728
C189.116,241.31,180.903,237.304,173,232.741
M369.627,232.296
C371.198,241.202,372.222,250.196,372.696,259.227
M345.093,243.568
C346.362,252.605,347,261.72,347,270.846
M248.301,100.784
C255.229,94.9712,262.506,89.5867,270.09,84.6611
M270.33,116.396
C277.521,110.777,285.097,105.668,293,101.105
M371.809,300.49
C362.134,304.597,352.217,308.108,342.114,311.005
M376.326,269.713
C366.701,274.617,356.745,278.843,346.532,282.36
M306.268,64.7981
C314.662,71.123,322.661,77.9556,330.222,85.2563
M277.356,76.2744
C286.416,82.1575,295.053,88.6667,303.206,95.7534
M134.923,239.404
C136.204,228.972,138.121,218.628,140.664,208.43
M159.318,258.704
C159.883,247.917,161.201,237.182,163.262,226.578
M161.964,296.827
C152.439,292.386,143.194,287.366,134.281,281.796
M158.524,265.912
C149.076,260.675,140.006,254.784,131.379,248.283
M408.018,248.36
C408.672,255.837,409,263.34,409,270.846
C409,273.848,408.948,276.85,408.843,279.85
M382.965,266.797
C382.988,268.146,383,269.496,383,270.846
C383,280.297,382.422,289.739,381.271,299.12
M243.017,59.5046
C251.626,53.4766,260.596,47.9797,269.876,43.0454
M271.511,71.9832
C280.77,66.4197,290.407,61.5095,300.35,57.2888"/>
</g>
</svg>
